<?xml version="1.0" encoding="UTF-8"?>
<svg id="Layer_1" data-name="Layer 1" xmlns="http://www.w3.org/2000/svg" version="1.1" xmlns:xlink="http://www.w3.org/1999/xlink" viewBox="0 0 199.49 118.81">
  <defs>
    <style>
      .cls-1 {
        fill: #a1804d;
      }

      .cls-1, .cls-2, .cls-3 {
        stroke-width: 0px;
      }

      .cls-2 {
        fill: #a47c45;
      }

      .cls-3 {
        fill: none;
      }

      .cls-4 {
        clip-path: url(#clippath);
      }
    </style>
    <clipPath id="clippath">
      <rect class="cls-3" x="-235.02" y="-172.72" width="595.28" height="419.53"/>
    </clipPath>
  </defs>
  <g class="cls-4">
    <path class="cls-2" d="M11.88,103.52c-1.23,0-2.35.46-3.13,1.29-.77.82-1.2,1.96-1.2,3.22s.43,2.4,1.2,3.22c.78.83,1.9,1.29,3.13,1.29,2.51,0,4.34-1.9,4.34-4.51s-1.83-4.51-4.34-4.51M15.04,108.02c0,2.05-1.3,3.49-3.16,3.49s-3.15-1.43-3.15-3.49,1.27-3.49,3.15-3.49,3.16,1.43,3.16,3.49"/>
    <polygon class="cls-2" points="22.15 110.28 19.47 103.68 19.47 103.66 17.87 103.66 17.87 112.38 19.01 112.38 19.01 105.22 21.9 112.36 21.91 112.38 22.39 112.38 25.27 105.22 25.27 112.38 26.41 112.38 26.41 103.66 24.81 103.66 22.15 110.28"/>
    <path class="cls-2" d="M32.4,103.66h-1.38l-3.5,8.68-.02.04h1.3l.77-1.93h4.27l.76,1.92v.02h1.31l-3.5-8.7v-.02ZM33.5,109.44h-3.59l1.79-4.56,1.8,4.56Z"/>
    <polygon class="cls-2" points="43.08 110.36 38.15 103.67 38.14 103.66 36.99 103.66 36.99 112.38 38.13 112.38 38.13 105.53 43.13 112.36 43.13 112.38 44.22 112.38 44.22 103.66 43.08 103.66 43.08 110.36"/>
    <path class="cls-2" d="M53.61,103.66h-1.38l-3.5,8.68-.02.04h1.3l.77-1.93h4.27l.76,1.92v.02h1.31l-3.5-8.7v-.02ZM54.71,109.44h-3.59l1.79-4.56,1.8,4.56Z"/>
    <path class="cls-2" d="M64.23,110.24v.02c-.53.76-1.46,1.25-2.38,1.25-1.92,0-3.31-1.47-3.31-3.49s1.39-3.49,3.31-3.49c.95,0,1.85.48,2.36,1.25l.02.02.95-.54-.02-.03c-.79-1.13-1.93-1.73-3.31-1.73-2.6,0-4.48,1.9-4.48,4.51s1.89,4.51,4.48,4.51c1.36,0,2.48-.59,3.32-1.74l.02-.03-.94-.51h-.02Z"/>
    <path class="cls-2" d="M72.8,106.3c0-1.58-1.11-2.64-2.76-2.64h-3.51v8.72h1.14v-3.44h1.69l2.19,3.44h1.34l-2.34-3.54c1.12-.12,2.24-.95,2.24-2.54M67.67,104.68h2.24c1.02,0,1.71.65,1.71,1.62s-.7,1.63-1.71,1.63h-2.24v-3.25Z"/>
    <path class="cls-2" d="M78.46,103.52c-1.23,0-2.35.46-3.13,1.29-.77.82-1.2,1.96-1.2,3.22s.43,2.4,1.2,3.22c.78.83,1.9,1.29,3.13,1.29,2.51,0,4.34-1.9,4.34-4.51s-1.83-4.51-4.34-4.51M81.62,108.02c0,2.05-1.3,3.49-3.16,3.49s-3.15-1.43-3.15-3.49,1.27-3.49,3.15-3.49,3.16,1.43,3.16,3.49"/>
    <path class="cls-2" d="M87.44,107.28c-1.11-.3-2.06-.56-2.06-1.39s.72-1.35,1.75-1.35c.71,0,1.72.18,2.48,1.03l.02.03.67-.82.02-.02-.02-.02c-.76-.8-1.83-1.23-3.08-1.23-1.75,0-3.02,1.03-3.02,2.44,0,1.69,1.54,2.11,2.9,2.47,1.15.31,2.23.6,2.23,1.6,0,.25-.1,1.48-2.01,1.48-1.47,0-2.37-.86-2.69-1.24l-.02-.03-.67.86-.02.02.02.02c.79.89,1.98,1.39,3.35,1.39,2.38,0,3.22-1.33,3.22-2.57,0-1.84-1.63-2.28-3.07-2.68"/>
    <path class="cls-2" d="M95.08,107.28c-1.11-.3-2.06-.56-2.06-1.39s.72-1.35,1.75-1.35c.71,0,1.72.18,2.48,1.03l.02.03.67-.82.02-.02-.02-.02c-.76-.8-1.83-1.23-3.08-1.23-1.75,0-3.02,1.03-3.02,2.44,0,1.69,1.54,2.11,2.9,2.47,1.15.31,2.23.6,2.23,1.6,0,.25-.1,1.48-2.01,1.48-1.47,0-2.37-.86-2.69-1.24l-.02-.03-.67.86-.02.02.02.02c.79.89,1.98,1.39,3.35,1.39,2.38,0,3.22-1.33,3.22-2.57,0-1.84-1.63-2.28-3.07-2.68"/>
    <path class="cls-2" d="M107.12,103.66h-1.38l-3.5,8.68-.02.04h1.3l.77-1.93h4.27l.76,1.92v.02h1.31l-3.5-8.7v-.02ZM108.23,109.44h-3.59l1.79-4.56,1.8,4.56Z"/>
    <path class="cls-2" d="M114.69,108.88h2.99v1.71c-.45.45-1.29.92-2.31.92-1.92,0-3.31-1.47-3.31-3.49s1.39-3.49,3.31-3.49c.98,0,1.91.44,2.48,1.18l.02.02.88-.56.03-.02-.02-.03c-.87-1.07-2.01-1.62-3.39-1.62-2.6,0-4.48,1.9-4.48,4.51,0,1.29.46,2.45,1.31,3.27.82.8,1.95,1.25,3.17,1.25,1.34,0,2.56-.54,3.42-1.52h0v-3.16h-4.11v1.02Z"/>
    <polygon class="cls-2" points="120.53 112.38 126.27 112.38 126.27 111.36 121.67 111.36 121.67 108.43 126.17 108.43 126.17 107.41 121.67 107.41 121.67 104.68 126.27 104.68 126.27 103.66 120.53 103.66 120.53 112.38"/>
    <path class="cls-2" d="M130.95,107.28c-1.11-.3-2.06-.56-2.06-1.39s.72-1.35,1.75-1.35c.71,0,1.72.18,2.48,1.03l.02.03.67-.82.02-.02-.02-.02c-.76-.8-1.83-1.23-3.08-1.23-1.75,0-3.02,1.03-3.02,2.44,0,1.69,1.54,2.11,2.9,2.47,1.15.31,2.23.6,2.23,1.6,0,.25-.1,1.48-2.01,1.48-1.47,0-2.37-.86-2.69-1.24l-.02-.03-.67.86-.02.02.02.02c.79.89,1.98,1.39,3.35,1.39,2.38,0,3.22-1.33,3.22-2.57,0-1.84-1.63-2.28-3.07-2.68"/>
    <polygon class="cls-2" points="143.28 110.28 140.61 103.68 140.6 103.66 139 103.66 139 112.38 140.14 112.38 140.14 105.22 143.03 112.36 143.04 112.38 143.52 112.38 146.4 105.22 146.4 112.38 147.54 112.38 147.54 103.66 145.95 103.66 143.28 110.28"/>
    <path class="cls-2" d="M155.53,108.96c0,1.62-.88,2.55-2.42,2.55s-2.41-.93-2.41-2.55v-5.3h-1.15v5.33c0,2.25,1.3,3.55,3.56,3.55s3.57-1.3,3.57-3.56v-5.31h-1.15v5.3Z"/>
    <path class="cls-2" d="M161.67,107.28c-1.11-.3-2.06-.56-2.06-1.39s.72-1.35,1.75-1.35c.71,0,1.72.18,2.48,1.03l.02.03.67-.82.02-.02-.02-.02c-.76-.8-1.83-1.23-3.08-1.23-1.75,0-3.02,1.03-3.02,2.44,0,1.69,1.54,2.11,2.9,2.47,1.15.31,2.23.6,2.23,1.6,0,.25-.1,1.48-2.01,1.48-1.47,0-2.37-.86-2.69-1.24l-.02-.03-.67.86-.02.02.02.02c.79.89,1.98,1.39,3.35,1.39,2.38,0,3.22-1.33,3.22-2.57,0-1.84-1.63-2.28-3.07-2.68"/>
    <polygon class="cls-2" points="166.33 112.38 172.06 112.38 172.06 111.36 167.46 111.36 167.46 108.43 171.97 108.43 171.97 107.41 167.46 107.41 167.46 104.68 172.06 104.68 172.06 103.66 166.33 103.66 166.33 112.38"/>
    <path class="cls-2" d="M179.74,108.96c0,1.62-.88,2.55-2.42,2.55s-2.41-.93-2.41-2.55v-5.3h-1.15v5.33c0,2.25,1.3,3.55,3.56,3.55s3.57-1.3,3.57-3.56v-5.31h-1.15v5.3Z"/>
    <polygon class="cls-2" points="189.83 103.66 187.16 110.28 184.49 103.68 184.49 103.66 182.89 103.66 182.89 112.38 184.03 112.38 184.03 105.22 186.92 112.36 186.92 112.38 187.41 112.38 190.29 105.22 190.29 112.38 191.43 112.38 191.43 103.66 189.83 103.66"/>
    <path class="cls-2" d="M15.34,94.88c0,2.85-1.35,4.29-4.02,4.29-2.17,0-3.77-1.15-3.77-4.15,0-.92.12-1.86.35-2.74l1.69-.31c-.28.96-.41,1.97-.41,2.9,0,2.41,1.18,3.03,2.29,3.03,1.36,0,2.26-.71,2.26-2.91v-6.17h1.61v6.06ZM11.29,88.79c.49,0,.9.4.9.9s-.41.9-.9.9-.9-.41-.9-.9.41-.9.9-.9"/>
    <path class="cls-2" d="M18.24,86.59c-.34-.06-.72-.12-1.11-.15v-.99c.86-.09,1.73-.15,2.73-.12v9.15h1.74v1.29h-3.37v-9.18Z"/>
    <rect class="cls-2" x="21.38" y="94.48" width="1.85" height="1.29"/>
    <rect class="cls-2" x="23.01" y="94.48" width="1.85" height="1.29"/>
    <rect class="cls-2" x="24.64" y="94.48" width="1.85" height="1.29"/>
    <rect class="cls-2" x="26.26" y="94.48" width="1.85" height="1.29"/>
    <rect class="cls-2" x="27.89" y="94.48" width="1.85" height="1.29"/>
    <rect class="cls-2" x="29.52" y="94.48" width="1.85" height="1.29"/>
    <path class="cls-2" d="M31.14,95.77c-.3,0-.89-.24-.89-.65,0-.38.59-.64.89-.64h1.37c.52,0,.84.09.84.09-.64-.43-.98-1.17-.98-2.32,0-1.91,1.27-3.61,3.77-3.61,2.2,0,3.24,1.26,3.24,3.36v3.77h-8.25ZM37.81,92.22c0-1.63-.67-2.29-1.79-2.29-1.26,0-2.01.92-2.01,2.25,0,1.55.74,2.31,2.48,2.31h1.32v-2.26Z"/>
    <path class="cls-2" d="M39.24,99.36l.15-1.32c.4.13.84.24,1.36.24,1.12,0,1.8-.55,1.8-2.34v-7.13h1.61v5.66h1.74v1.29h-1.74v.06c0,2.01-.71,3.73-3.52,3.73-.52,0-1.01-.07-1.4-.19M43.34,85.92c.49,0,.9.4.9.9s-.41.9-.9.9-.9-.41-.9-.9.41-.9.9-.9"/>
    <rect class="cls-2" x="45.69" y="94.48" width="1.85" height="1.29"/>
    <rect class="cls-2" x="47.32" y="94.48" width="1.85" height="1.29"/>
    <path class="cls-2" d="M48.94,95.77c-.3,0-.89-.24-.89-.65,0-.38.59-.64.89-.64h1.97v-9.14h1.61v10.42h-3.58Z"/>
    <path class="cls-2" d="M55.42,86.59c-.34-.06-.72-.12-1.11-.15v-.99c.86-.09,1.73-.15,2.73-.12v10.44h-1.63v-9.18Z"/>
    <path class="cls-2" d="M61.43,99.36l.15-1.32c.4.13.84.24,1.36.24,1.12,0,1.8-.55,1.8-2.34v-7.13h1.61v5.66h1.74v1.29h-1.74v.06c0,2.01-.71,3.73-3.52,3.73-.52,0-1.01-.07-1.4-.19"/>
    <rect class="cls-2" x="67.88" y="94.48" width="1.85" height="1.29"/>
    <rect class="cls-2" x="69.51" y="94.48" width="1.85" height="1.29"/>
    <rect class="cls-2" x="71.13" y="94.48" width="1.85" height="1.29"/>
    <rect class="cls-2" x="72.76" y="94.48" width="1.85" height="1.29"/>
    <path class="cls-2" d="M73.5,95.12c0-.38.59-.64.89-.64h1.97v-5.66h1.61v5.66h1.74v1.29h-5.32c-.3,0-.89-.24-.89-.65M77.13,96.94c.5,0,.89.37.89.89s-.38.89-.89.89-.89-.38-.89-.89.38-.89.89-.89"/>
    <rect class="cls-2" x="79.48" y="94.48" width="1.85" height="1.29"/>
    <path class="cls-2" d="M81.11,95.77c-.3,0-.89-.24-.89-.65,0-.38.59-.64.89-.64h2.66c-.78-.38-1.39-1.3-1.39-2.44,0-1.83,1.23-3.4,3.74-3.4,1.03,0,1.89.31,1.89.31l-.3,1.3s-.75-.34-1.66-.34c-1.23,0-2.05.8-2.05,2.1,0,1.4,1.09,2.47,3.68,2.47h1.18v1.29h-7.76Z"/>
    <path class="cls-2" d="M101.33,94.88c0,2.85-1.35,4.29-4.02,4.29-2.17,0-3.77-1.15-3.77-4.15,0-.92.12-1.86.35-2.74l1.69-.31c-.28.96-.41,1.97-.41,2.9,0,2.41,1.18,3.03,2.29,3.03,1.36,0,2.26-.71,2.26-2.91v-6.17h1.61v6.06ZM97.28,88.79c.49,0,.9.4.9.9s-.41.9-.9.9-.9-.41-.9-.9.41-.9.9-.9"/>
    <path class="cls-2" d="M104.23,86.59c-.34-.06-.72-.12-1.11-.15v-.99c.86-.09,1.73-.15,2.73-.12v9.15h1.74v1.29h-3.37v-9.18Z"/>
    <rect class="cls-2" x="107.38" y="94.48" width="1.85" height="1.29"/>
    <rect class="cls-2" x="109.01" y="94.48" width="1.85" height="1.29"/>
    <rect class="cls-2" x="110.63" y="94.48" width="1.85" height="1.29"/>
    <rect class="cls-2" x="112.26" y="94.48" width="1.85" height="1.29"/>
    <rect class="cls-2" x="113.89" y="94.48" width="1.85" height="1.29"/>
    <rect class="cls-2" x="115.51" y="94.48" width="1.85" height="1.29"/>
    <path class="cls-2" d="M122.98,95.77c-2.16,0-2.87-.52-3.37-1.27-.24.74-.89,1.27-2.11,1.27h-.35c-.3,0-.89-.24-.89-.65,0-.38.59-.64.89-.64h.13c.95,0,1.6-.47,1.6-2.23,0-1.91,1.26-3.61,3.76-3.61,2.2,0,3.25,1.26,3.25,3.36v2.48h1.35v1.29h-4.24ZM124.28,92.22c0-1.63-.67-2.29-1.79-2.29-1.26,0-2.01.92-2.01,2.25,0,1.55.75,2.31,2.48,2.31h1.32v-2.26Z"/>
    <rect class="cls-2" x="127" y="94.48" width="1.85" height="1.29"/>
    <rect class="cls-2" x="128.63" y="94.48" width="1.85" height="1.29"/>
    <path class="cls-2" d="M132.65,86.94l1.08-.15s-.09-.18-.09-.43c0-.7.62-1.2,1.38-1.2.64,0,1.17.37,1.17,1.03,0,.72-.59,1.02-1.45,1.14l-2.08.27v-.67ZM134.73,86.69c.5-.06.69-.19.69-.49,0-.24-.18-.4-.46-.4-.35,0-.58.25-.58.58,0,.22.07.34.07.34l.27-.03Z"/>
    <path class="cls-2" d="M130.25,95.77c-.3,0-.89-.24-.89-.65,0-.38.59-.64.89-.64h2.66c-.78-.38-1.39-1.3-1.39-2.44,0-1.83,1.23-3.4,3.74-3.4,1.03,0,1.89.31,1.89.31l-.3,1.3s-.75-.34-1.66-.34c-1.23,0-2.05.8-2.05,2.1,0,1.4,1.09,2.47,3.68,2.47h1.18v1.29h-7.76Z"/>
    <path class="cls-2" d="M155.86,95.77h-7.81c-3.86,0-5.28-1.58-5.28-4.33,0-.86.19-1.8.43-2.41l1.74-.28c-.34.69-.55,1.69-.55,2.5,0,2.17.95,3.24,3.62,3.24h.65c-.53-.43-.81-1.21-.81-2.2,0-2.06,1.43-3.64,3.65-3.64,1.98,0,3.37,1.02,3.37,3.45,0,.96-.35,1.94-1.02,2.45,0,0,.7-.06,1.21-.06h.78v1.29ZM151.39,89.93c-.96,0-1.91.67-1.91,2.23s.67,2.32,1.89,2.32c1.02,0,1.86-.74,1.86-2.31,0-1.43-.61-2.25-1.85-2.25M151.42,85.92c.49,0,.9.4.9.9s-.41.9-.9.9-.9-.41-.9-.9.41-.9.9-.9"/>
    <rect class="cls-2" x="155.64" y="94.48" width="1.85" height="1.29"/>
    <rect class="cls-2" x="157.26" y="94.48" width="1.85" height="1.29"/>
    <rect class="cls-2" x="158.89" y="94.48" width="1.85" height="1.29"/>
    <rect class="cls-2" x="160.51" y="94.48" width="1.85" height="1.29"/>
    <rect class="cls-2" x="162.14" y="94.48" width="1.85" height="1.29"/>
    <path class="cls-2" d="M162.88,95.12c0-.38.59-.64.89-.64h5.35c.06-.44.1-.9.1-1.35,0-2.07-.8-3.1-3.09-3.1-.56,0-1.17.06-1.72.15v-1.27c.52-.1,1.23-.16,1.86-.16,3.3,0,4.55,1.48,4.55,4.3,0,.41-.03.9-.09,1.43h1.06v1.29h-8.04c-.3,0-.89-.24-.89-.65"/>
    <rect class="cls-2" x="171.57" y="94.48" width="1.85" height="1.29"/>
    <rect class="cls-2" x="173.2" y="94.48" width="1.85" height="1.29"/>
    <path class="cls-2" d="M174.82,95.77c-.3,0-.89-.24-.89-.65,0-.38.59-.64.89-.64h1.97v-5.66h1.61v5.66h1.74v1.29h-5.32ZM176.47,85.94c.49,0,.86.37.86.86s-.37.86-.86.86-.84-.38-.84-.86.37-.86.84-.86M178.71,85.94c.46,0,.86.38.86.86s-.38.86-.86.86-.86-.38-.86-.86.38-.86.86-.86"/>
    <rect class="cls-2" x="179.93" y="94.48" width="1.85" height="1.29"/>
    <rect class="cls-2" x="181.55" y="94.48" width="1.85" height="1.29"/>
    <path class="cls-2" d="M183.18,95.77c-.3,0-.89-.24-.89-.65,0-.38.59-.64.89-.64h1.37c.52,0,.84.09.84.09-.64-.43-.98-1.17-.98-2.32,0-1.91,1.27-3.61,3.77-3.61,2.2,0,3.24,1.26,3.24,3.36v3.77h-8.25ZM189.84,92.22c0-1.63-.67-2.29-1.79-2.29-1.26,0-2.01.92-2.01,2.25,0,1.55.74,2.31,2.48,2.31h1.32v-2.26Z"/>
    <path class="cls-1" d="M99.78,4.77c-4.29,0-8.39.81-12.2,2.23-.99.37-1.95.78-2.9,1.23.73.17,1.73.42,2.95.75,6.9,1.85,20.49,6.24,28.26,13.74,9.59,9.25,8.36,18.12,7.64,20.92-.61-.12-1.2-.24-1.78-.37.49-2.7,1.64-13.62-9.99-21.36-9.18-6.11-21.5-9.04-29.22-10.38-1.01-.17-1.95-.32-2.78-.45-.74.52-1.46,1.04-2.15,1.61.74.1,1.62.22,2.63.38,7.29,1.14,20.88,4,30.49,10.4,10.76,7.16,9.69,16.88,9.21,19.34-.62-.17-1.23-.33-1.81-.51.37-2.03,1.07-9.1-5.62-15.26-7.39-6.8-25.68-10.27-35.08-11.66-.89-.13-1.7-.25-2.42-.34-.54.54-1.04,1.13-1.55,1.7.63.08,1.38.18,2.26.31,8.64,1.22,28.18,4.64,35.51,11.38,5.79,5.33,5.39,11.32,5.08,13.27-.64-.23-1.23-.46-1.8-.69.05-.29.07-.54.07-.67.23-1.27,1.53-11.59-16.93-16.33-8.54-2.19-18.99-2.88-25.1-3.1-.81-.03-1.57-.05-2.21-.07-.4.61-.78,1.23-1.14,1.87-2.84,5.06-4.48,10.89-4.48,17.09,0,19.32,15.72,35.03,35.03,35.03s35.03-15.71,35.03-35.03S119.09,4.77,99.78,4.77M99.78,72.95c-18.28,0-33.15-14.87-33.15-33.15,0-6.24,1.76-12.06,4.77-17.04,5.79.17,16.89.78,25.81,3.07,17.4,4.47,15.62,13.82,15.54,14.21l-.03.12v.07c-.66-.3-1.27-.6-1.78-.86.08-.66.1-2.38-1.51-4.41-3.14-3.97-12.16-8.59-37.48-8.96-.31.62-.62,1.23-.89,1.87,26.2.25,34.34,5.16,36.8,8.15.75.91,1.04,1.7,1.16,2.27-.12-.07-.2-.13-.28-.18-.89-1.81-6.39-6.66-38.8-7.01-.18.62-.34,1.24-.48,1.88,24.27.24,33,3.03,36.03,4.73-7.14-.26-27.73-1.01-36.62-1.2-.07.62-.08,1.25-.11,1.88,5.03.11,13.93.4,22.01.68-.17.56-.38,1.48-.52,2.67-8.92.66-17.12.87-21.41.93.06.63.16,1.26.26,1.88,4.33-.07,12.33-.28,21.04-.92-.02.79.03,1.63.13,2.54-6.68,1.32-15.78,1.71-20.44,1.82.17.63.36,1.26.57,1.87,4.83-.12,13.54-.52,20.17-1.83.16.74.35,1.49.62,2.27-6.25,1.8-14.78,3.07-19.06,3.63.31.6.64,1.19.99,1.77,4.58-.62,12.74-1.88,18.77-3.64.08.17.12.33.2.5.09.19.22.36.31.54h-.02c.02.08.16.51.46,1.21-1.73.59-10,3.33-17.54,4.58.45.58.92,1.13,1.41,1.67,7.76-1.4,15.74-4.12,16.94-4.54.32.62.72,1.32,1.2,2.09-3.55,1.84-11.05,4.1-15.24,5.29.59.5,1.2.98,1.83,1.43,4.43-1.29,11.1-3.38,14.45-5.15.43.62.92,1.27,1.44,1.94-2.59,1.46-8.94,3.91-12.67,5.31.75.42,1.51.79,2.3,1.15,3.94-1.5,9.33-3.64,11.58-4.98.49.58,1.02,1.16,1.59,1.77-3.37,2.12-6.69,3.75-8.99,4.77.97.28,1.95.52,2.96.7,2.16-1.04,4.75-2.41,7.38-4.09,1.32,1.3,2.83,2.65,4.53,4.01.78-.16,1.53-.37,2.29-.59-3.61-2.77-6.34-5.48-8.39-7.9,3.26,2.51,7.28,4.73,12.12,6.6.81-.35,1.6-.73,2.37-1.15-10.51-3.77-17.46-8.94-20.6-15.44-3.21-6.65-1.18-12.37-1.07-12.65,1,.04,1.98.07,2.93.1-.58,1.79-1.52,6.12.88,11.09,2.92,6.06,9.7,10.78,20.11,14.11.03.01.05.03.08.04h0c.44.13.89.27,1.34.41.63-.46,1.26-.94,1.85-1.45-.89-.25-1.78-.5-2.62-.78-5.95-2.8-9.63-5.91-11.91-8.84,3.75,3.12,9.43,5.54,17.03,7.22.5-.53.99-1.06,1.45-1.62-11.17-2.32-18.41-6.24-20.93-11.44-1.92-3.96-.61-7.47-.16-8.48,1.09.04,2.02.07,2.8.1-.69,1.47-1.39,3.93-.26,6.67,2.01,4.9,8.97,8.35,20.58,10.33.36-.56.72-1.13,1.04-1.71-14.08-2.27-18.61-6.27-19.87-9.31-.61-1.47-.52-2.83-.23-3.92.08.48.23.99.51,1.54,2.1,4.05,9.24,6.9,21.13,8.52.24-.58.45-1.19.66-1.79-14.92-1.97-19-5.51-20.09-7.53-.49-.91-.46-1.64-.36-2.08,2.85,1.68,10.51,5.42,21.48,6,.13-.6.21-1.21.3-1.82-1.79-.09-3.46-.28-5.06-.53.19-.8.4-1.94.47-3.35,1.05,0,3.02.04,4.94.14,0-.32.05-.62.05-.94s-.04-.63-.05-.94c-1.95-.1-3.9-.13-4.95-.14-.04-1.03-.18-2.15-.42-3.35,1.06-.18,3.1-.52,4.95-.76-.1-.62-.22-1.24-.36-1.85-1.94.25-4.03.6-5.05.77-.27-.89-.61-1.82-1.03-2.77,1.02-.27,3.09-.8,5.13-1.24-.21-.6-.41-1.2-.65-1.78-2.29.51-4.54,1.09-5.32,1.3-.49-.92-1.05-1.84-1.71-2.79.95-.48,2.91-1.38,5.26-1.99-.33-.57-.66-1.13-1.02-1.68-2.55.72-4.57,1.71-5.4,2.14-.66-.83-1.4-1.67-2.22-2.51,1.06-.66,2.96-1.75,5.27-2.7-.44-.51-.88-1.01-1.35-1.49-2.47,1.07-4.39,2.23-5.31,2.83-.74-.68-1.49-1.35-2.3-1.97.85-.7,2.59-2.03,4.96-3.27-.54-.44-1.1-.85-1.67-1.25-2.58,1.45-4.3,2.88-4.89,3.39-.94-.66-1.9-1.29-2.9-1.88.79-.73,2.45-2.19,4.58-3.51-.64-.35-1.31-.65-1.98-.95-2.3,1.57-3.9,3.08-4.29,3.47-1.01-.55-2.02-1.07-3.05-1.57.88-.9,2.2-2.13,3.78-3.26-.76-.23-1.53-.42-2.31-.6-1.4,1.13-2.53,2.24-3.26,3.01-4.47-2.02-8.93-3.54-12.45-4.58,2.85-.8,5.84-1.26,8.94-1.26,18.28,0,33.15,14.87,33.15,33.15s-14.87,33.15-33.15,33.15M106.87,58.15c-4.14-2.47-7.06-5.36-8.64-8.6-2.46-5.06-.94-9.45-.62-10.24,1.13.04,2.18.08,3.18.11-.22.6-.45,1.4-.59,2.37h0c-.11.43-2.01,8.47,6.68,16.36"/>
  </g>
</svg>